<svg width="28" height="28" viewBox="0 0 28 28" fill="none" xmlns="http://www.w3.org/2000/svg">
<path d="M23.3333 14V8.16663H25.6666V15.1666H23.3333M23.3333 19.8333H25.6666V17.5H23.3333M11.6666 15.1666C14.7816 15.1666 20.9999 16.73 20.9999 19.8333V23.3333H2.33325V19.8333C2.33325 16.73 8.55159 15.1666 11.6666 15.1666ZM11.6666 4.66663C12.9043 4.66663 14.0912 5.15829 14.9664 6.03346C15.8416 6.90863 16.3333 8.09562 16.3333 9.33329C16.3333 10.571 15.8416 11.758 14.9664 12.6331C14.0912 13.5083 12.9043 14 11.6666 14C10.4289 14 9.24192 13.5083 8.36675 12.6331C7.49158 11.758 6.99992 10.571 6.99992 9.33329C6.99992 8.09562 7.49158 6.90863 8.36675 6.03346C9.24192 5.15829 10.4289 4.66663 11.6666 4.66663ZM11.6666 17.3833C8.20159 17.3833 4.54992 19.0866 4.54992 19.8333V21.1166H18.7833V19.8333C18.7833 19.0866 15.1316 17.3833 11.6666 17.3833ZM11.6666 6.88329C11.0168 6.88329 10.3936 7.14142 9.93417 7.60088C9.47471 8.06034 9.21659 8.68351 9.21659 9.33329C9.21659 9.98307 9.47471 10.6062 9.93417 11.0657C10.3936 11.5252 11.0168 11.7833 11.6666 11.7833C12.3164 11.7833 12.9395 11.5252 13.399 11.0657C13.8585 10.6062 14.1166 9.98307 14.1166 9.33329C14.1166 8.68351 13.8585 8.06034 13.399 7.60088C12.9395 7.14142 12.3164 6.88329 11.6666 6.88329Z" fill="black"/>
</svg>
