<svg width="61" height="60" viewBox="0 0 61 60" fill="none" xmlns="http://www.w3.org/2000/svg">
<g clip-path="url(#clip0_0_810)">
<path d="M57.1193 21.2611C56.3275 18.8096 56.6651 15.1295 54.6072 12.2881C52.5333 9.42425 48.9261 8.61027 46.8893 7.12058C44.8739 5.6466 42.9989 2.43906 39.6088 1.33281C36.3143 0.25773 32.9454 1.7166 30.3333 1.7166C27.7215 1.7166 24.3528 0.257378 21.0577 1.33269C17.6682 2.43871 15.7917 5.64695 13.7776 7.12023C11.743 8.60816 8.13313 9.42437 6.0595 12.2877C4.00345 15.1268 4.33755 18.8153 3.54724 21.261C2.79513 23.5887 0.333252 26.3823 0.333252 30.0002C0.333252 33.6202 2.79231 36.403 3.54724 38.7392C4.33895 41.1907 4.00146 44.8708 6.05927 47.7122C8.13313 50.5762 11.7402 51.39 13.7772 52.8798C15.7923 54.3536 17.6676 57.5614 21.0577 58.6675C24.35 59.7419 27.7242 58.2837 30.3333 58.2837C32.9387 58.2837 36.3207 59.7403 39.6088 58.6676C42.9984 57.5616 44.8738 54.3541 46.8889 52.8801C48.9235 51.3921 52.5334 50.5759 54.607 47.7126C56.6632 44.8734 56.3288 41.1852 57.1193 38.7393C57.8714 36.4115 60.3333 33.6178 60.3333 30.0002C60.3333 26.3803 57.8748 23.5983 57.1193 21.2611ZM52.659 37.2979C51.7361 40.1543 51.9779 43.3511 50.8107 44.9629C49.6278 46.5961 46.5201 47.3421 44.1221 49.0962C41.7504 50.8307 40.0881 53.5803 38.1547 54.2111C36.3256 54.808 33.3449 53.596 30.3334 53.596C27.2999 53.596 24.3498 54.8106 22.5119 54.2111C20.5788 53.5803 18.9188 50.8326 16.5445 49.0961C14.1607 47.3527 11.0353 46.5913 9.85579 44.9627C8.69235 43.3562 8.92497 40.1373 8.00774 37.298C7.10868 34.5161 5.02075 32.1073 5.02075 30.0002C5.02075 27.8909 7.10681 25.4904 8.00751 22.7024C8.93036 19.8461 8.6886 16.6491 9.85579 15.0374C11.038 13.4052 14.148 12.6568 16.5445 10.9041C18.9238 9.16398 20.5756 6.42097 22.5117 5.78921C24.3392 5.19296 27.3297 6.40433 30.3331 6.40433C33.3722 6.40433 36.3149 5.18886 38.1546 5.78921C40.0875 6.41992 41.7488 9.16867 44.1221 10.9042C46.5056 12.6476 49.6312 13.409 50.8107 15.0375C51.9744 16.6443 51.7405 19.8599 52.6588 22.7022V22.7023C53.5578 25.4842 55.6458 27.893 55.6458 30.0002C55.6458 32.1094 53.5597 34.5099 52.659 37.2979ZM41.1313 22.4773C42.0466 23.3927 42.0466 24.8766 41.1313 25.7918L29.4001 37.523C28.4847 38.4384 27.0007 38.4382 26.0854 37.523L19.5354 30.9729C18.62 30.0576 18.6199 28.5736 19.5352 27.6584C20.4506 26.7432 21.9348 26.743 22.8498 27.6584L27.7427 32.5512L37.8165 22.4774C38.7318 21.5621 40.2159 21.5621 41.1313 22.4773Z" fill="#242424"/>
</g>
<defs>
<clipPath id="clip0_0_810">
<rect width="60" height="60" fill="white" transform="translate(0.333252)"/>
</clipPath>
</defs>
</svg>
