<svg width="61" height="60" viewBox="0 0 61 60" fill="none" xmlns="http://www.w3.org/2000/svg">
<g clip-path="url(#clip0_0_818)">
<path d="M56.0147 31.102V3.77976C56.0147 2.80502 55.2244 2.01477 54.2497 2.01477H6.96186C5.98711 2.01477 5.19687 2.80502 5.19687 3.77976V33.2801C4.34544 33.4042 3.51307 33.7347 2.77671 34.2814C0.4554 35.9274 -0.0936297 39.6111 1.8508 41.8828L9.80067 51.5205C14.7217 57.2799 19.9492 57.9855 27.7206 57.9855C34.3896 57.9855 37.3711 58.015 43.1832 56.6906L48.8427 55.337C49.7604 56.6185 51.2172 57.4486 52.855 57.4486H55.643C58.4131 57.4486 60.6667 55.0745 60.6667 52.1562V36.3785C60.6668 33.5921 58.6117 31.3032 56.0147 31.102ZM48.0814 34.7327L45.7297 33.5383C41.8631 31.5866 37.3926 31.5143 33.4649 33.3404C32.3934 33.7619 30.0562 35.176 28.8438 35.1287H20.6835C17.9767 35.1287 15.7745 37.3308 15.7745 40.0377V41.3249C15.7593 41.3089 15.7434 41.2937 15.7284 41.2774L9.90104 34.9521C9.54839 34.5693 9.15221 34.249 8.72696 33.992V16.4811H23.1708V22.9511C23.1708 23.9258 23.9611 24.7161 24.9358 24.7161H36.073C37.0478 24.7161 37.838 23.9258 37.838 22.9511V16.4811H52.4848V31.1019C50.4226 31.2612 48.703 32.7365 48.0814 34.7327ZM26.7007 16.4811H34.3079V21.1861H26.7007V16.4811ZM52.4847 12.9511H37.838V5.54475H52.4848V12.9511H52.4847ZM34.308 5.54475V12.9512H26.7008V5.54475H34.308ZM23.1707 5.54475V12.9512H8.72685V5.54475H23.1707ZM42.364 53.2569C36.9949 54.4866 33.7613 54.4368 27.7839 54.4368C20.4886 54.4368 16.9637 54.3189 12.5239 49.2741L4.57406 39.6365C3.19125 37.8358 5.69589 35.7102 7.30485 37.3436L13.1323 43.6691C14.6724 45.2942 16.6105 46.1886 18.9992 46.2412H35.1557C36.1304 46.2412 36.9207 45.4509 36.9207 44.4762C36.9207 43.5014 36.1304 42.7112 35.1557 42.7112H19.3043V40.0375C19.3043 39.2771 19.9229 38.6584 20.6834 38.6584H28.8437C30.6821 38.7901 33.3356 37.255 34.9531 36.5411C37.8947 35.1734 41.243 35.2275 44.1351 36.6873L47.8315 38.5648V51.949L42.364 53.2569ZM57.1369 52.1561C57.1369 53.1279 56.4668 53.9185 55.6431 53.9185H52.8551C52.0315 53.9185 51.3615 53.1279 51.3615 52.1561V36.3785C51.3615 35.4067 52.0316 34.616 52.8551 34.616H55.6431C56.4668 34.616 57.1369 35.4066 57.1369 36.3785V52.1561Z" fill="#242424"/>
</g>
<defs>
<clipPath id="clip0_0_818">
<rect width="60" height="60" fill="white" transform="translate(0.666748)"/>
</clipPath>
</defs>
</svg>
