<svg width="60" height="60" viewBox="0 0 60 60" fill="none" xmlns="http://www.w3.org/2000/svg">
<g clip-path="url(#clip0_0_824)">
<path d="M54.6935 23.9628C54.2992 10.6825 43.3741 0 29.9999 0C16.6257 0 5.70059 10.6825 5.30612 23.9628L3.5293 25.7396V37.7898L5.294 39.5545V47.7647C5.294 52.5652 9.19941 56.4706 13.9999 56.4706H16.1858C16.9142 58.5246 18.8758 60 21.1764 60H24.7058C27.0079 60 28.9705 58.5225 29.6978 56.4664C29.7986 56.4681 29.8997 56.4706 29.9999 56.4706C38.522 56.4706 45.6526 50.3981 47.2921 42.3529H51.9073L56.4705 37.7898V25.7396L54.6935 23.9628ZM29.9999 3.52941C40.4741 3.52941 49.1953 11.174 50.8806 21.1765H47.2921C45.6526 13.1313 38.522 7.05882 29.9999 7.05882C21.4778 7.05882 14.3472 13.1313 12.7077 21.1765H9.11918C10.8045 11.174 19.5257 3.52941 29.9999 3.52941ZM43.6708 21.1765C37.9662 21.1594 33.9368 21.5068 30.6147 16.6506L29.0015 14.2926L27.6152 16.7907C25.5952 20.4306 22.8748 21.1765 19.4117 21.1765H16.3289C17.9001 15.0944 23.4337 10.5882 29.9999 10.5882C36.5661 10.5882 42.0997 15.0944 43.6708 21.1765ZM12.3528 38.8235H9.55436L7.05871 36.3279V27.2015L9.55436 24.7059H12.3528V38.8235ZM8.82341 47.7647V42.3529H12.7042C13.3686 45.6441 14.9581 48.6652 17.3129 51.0916C16.8193 51.6191 16.4321 52.2467 16.1858 52.9412H13.9999C11.1455 52.9412 8.82341 50.6191 8.82341 47.7647ZM24.7058 56.4706H21.1764C20.2032 56.4706 19.4117 55.6791 19.4117 54.7059C19.4117 53.7328 20.2032 52.9412 21.1764 52.9412H24.7058C25.6788 52.9412 26.4705 53.7328 26.4705 54.7059C26.4705 55.6791 25.6788 56.4706 24.7058 56.4706ZM44.1175 38.8235C44.1175 46.608 37.7844 52.9412 29.9999 52.9412C29.8987 52.9412 29.7967 52.9392 29.6948 52.9368C28.9652 50.8851 27.0047 49.4118 24.7058 49.4118C21.0822 49.4198 21.14 49.3936 20.6884 49.4352C17.6246 46.7498 15.8822 42.9248 15.8822 38.8235V24.7059H19.4117C22.5348 24.7059 26.3384 24.1909 29.2826 20.6076C33.1673 24.6786 37.9146 24.7059 42.1761 24.7059H44.1175V38.8235ZM52.9411 36.3279L50.4454 38.8235H47.6469V24.7059H50.4454L52.9411 27.2015V36.3279Z" fill="#242424"/>
</g>
<defs>
<clipPath id="clip0_0_824">
<rect width="60" height="60" fill="white"/>
</clipPath>
</defs>
</svg>
