<svg width="54" height="60" viewBox="0 0 54 60" fill="none" xmlns="http://www.w3.org/2000/svg">
<path d="M46.3547 3.51562C45.0744 3.51562 43.8741 3.86121 42.839 4.46156V1.75781C42.839 0.787031 42.052 0 41.0812 0H12.9562C11.9853 0 11.1983 0.787031 11.1983 1.75781V4.48301C10.155 3.8693 8.94102 3.51562 7.64551 3.51562C3.76848 3.51562 0.614258 6.66984 0.614258 10.5469C0.614258 13.5041 1.49059 16.3615 3.14844 18.8102C5.97078 22.9789 9.45113 24.0607 12.331 25.2127C13.9916 29.348 17.3496 32.6252 21.5384 34.1769L20.2422 42.4219H19.9875C17.0797 42.4219 14.714 44.7875 14.714 47.6953V56.4844H12.9562C11.9854 56.4844 11.1984 57.2714 11.1984 58.2422C11.1984 59.213 11.9854 60 12.9562 60H41.0812C42.052 60 42.839 59.213 42.839 58.2422C42.839 57.2714 42.052 56.4844 41.0812 56.4844H39.3234V47.6953C39.3234 44.7875 36.9577 42.4219 34.05 42.4219H33.7952L32.4991 34.177C36.6941 32.623 40.0558 29.3386 41.7139 25.1948C44.4344 24.1066 48.0005 23.0217 50.8518 18.8102C52.5097 16.3615 53.386 13.504 53.386 10.5469C53.3859 6.66984 50.2317 3.51562 46.3547 3.51562ZM11.1853 20.968C6.89926 19.2536 4.12988 15.1631 4.12988 10.5469C4.12988 8.60836 5.70699 7.03125 7.64551 7.03125C9.58402 7.03125 11.1611 8.60836 11.1611 10.5469C11.1611 10.6705 11.1741 10.791 11.1984 10.9073V19.3359C11.1984 19.9009 11.2288 20.4588 11.2869 21.0087L11.1853 20.968ZM35.8078 56.4844H18.2296V52.9688H35.8078V56.4844ZM34.05 45.9375C35.0192 45.9375 35.8078 46.7261 35.8078 47.6953V49.4531H18.2296V47.6953C18.2296 46.7261 19.0182 45.9375 19.9875 45.9375C20.9411 45.9375 31.8134 45.9375 34.05 45.9375ZM23.801 42.4219L24.9642 35.023C25.6368 35.1107 26.3225 35.1562 27.0187 35.1562C27.7149 35.1562 28.4006 35.1105 29.0732 35.023L30.2364 42.4219H23.801ZM39.3234 19.3359C39.3234 26.1207 33.8035 31.6406 27.0187 31.6406C20.2339 31.6406 14.714 26.1207 14.714 19.3359V10.5469H39.3234V19.3359ZM39.3234 7.03125H14.714V3.51562H39.3234V7.03125ZM42.8148 20.968L42.7523 20.993C42.8093 20.4483 42.8389 19.8955 42.8389 19.3359V10.5469C42.839 8.60836 44.4161 7.03125 46.3547 7.03125C48.2932 7.03125 49.8703 8.60836 49.8703 10.5469C49.8703 15.1631 47.1009 19.2537 42.8148 20.968Z" fill="#242424"/>
</svg>
