<svg width="50" height="24" viewBox="0 0 50 24" fill="none" xmlns="http://www.w3.org/2000/svg">
<path d="M7.99973 18.0361C-5.33333 10.6667 3.99999 2.66669 7.99973 7.72539C12 2.66669 21.3333 10.6667 7.99973 18.0361Z" stroke="white" stroke-width="1.8"/>
<path d="M21.344 16.224H25.024V18H19.104V6.832H21.344V16.224ZM27.5838 8.08C27.1891 8.08 26.8584 7.95733 26.5918 7.712C26.3358 7.456 26.2078 7.14133 26.2078 6.768C26.2078 6.39467 26.3358 6.08533 26.5918 5.84C26.8584 5.584 27.1891 5.456 27.5838 5.456C27.9784 5.456 28.3038 5.584 28.5598 5.84C28.8264 6.08533 28.9598 6.39467 28.9598 6.768C28.9598 7.14133 28.8264 7.456 28.5598 7.712C28.3038 7.95733 27.9784 8.08 27.5838 8.08ZM28.6878 9.136V18H26.4478V9.136H28.6878ZM36.1489 18L33.1409 14.224V18H30.9009V6.16H33.1409V12.896L36.1169 9.136H39.0289L35.1249 13.584L39.0609 18H36.1489ZM48.4846 13.376C48.4846 13.696 48.4633 13.984 48.4206 14.24H41.9406C41.994 14.88 42.218 15.3813 42.6126 15.744C43.0073 16.1067 43.4926 16.288 44.0686 16.288C44.9006 16.288 45.4926 15.9307 45.8446 15.216H48.2606C48.0046 16.0693 47.514 16.7733 46.7886 17.328C46.0633 17.872 45.1726 18.144 44.1166 18.144C43.2633 18.144 42.4953 17.9573 41.8126 17.584C41.1406 17.2 40.6126 16.6613 40.2286 15.968C39.8553 15.2747 39.6686 14.4747 39.6686 13.568C39.6686 12.6507 39.8553 11.8453 40.2286 11.152C40.602 10.4587 41.1246 9.92533 41.7966 9.552C42.4686 9.17867 43.242 8.992 44.1166 8.992C44.9593 8.992 45.7113 9.17333 46.3726 9.536C47.0446 9.89867 47.562 10.416 47.9246 11.088C48.298 11.7493 48.4846 12.512 48.4846 13.376ZM46.1646 12.736C46.154 12.16 45.946 11.7013 45.5406 11.36C45.1353 11.008 44.6393 10.832 44.0526 10.832C43.498 10.832 43.0286 11.0027 42.6446 11.344C42.2713 11.6747 42.042 12.1387 41.9566 12.736H46.1646Z" fill="white"/>
</svg>
